<?xml version="1.0" encoding="UTF-8" standalone="no"?>
<svg width="22" height="22" viewBox="0 0 22 22" fill="none" version="1.1" id="svg12" sodipodi:docname="AddImage.svg" inkscape:version="1.2.2 (732a01da63, 2022-12-09)"
   xmlns:inkscape="http://www.inkscape.org/namespaces/inkscape"
   xmlns:sodipodi="http://sodipodi.sourceforge.net/DTD/sodipodi-0.dtd"
   xmlns="http://www.w3.org/2000/svg"
   xmlns:svg="http://www.w3.org/2000/svg">
   <defs id="defs16" />
   <sodipodi:namedview id="namedview14" pagecolor="#ffffff" bordercolor="#666666" borderopacity="1.0" inkscape:showpageshadow="2" inkscape:pageopacity="0.0" inkscape:pagecheckerboard="0" inkscape:deskcolor="#d1d1d1" showgrid="false" inkscape:zoom="37.681818" inkscape:cx="10.986731" inkscape:cy="11.013269" inkscape:window-width="1680" inkscape:window-height="979" inkscape:window-x="1912" inkscape:window-y="-8" inkscape:window-maximized="1" inkscape:current-layer="svg12" />
   <path d="M18.7778 1V5.44444" stroke-width="2" stroke-linecap="round" id="path2" />
   <path d="M21 3.22222L16.5556 3.22222" stroke-width="2" stroke-linecap="round" id="path4" />
   <path d="M12.3889 3.22222H5C2.79086 3.22222 1 5.01309 1 7.22223V16.2778M18.7778 9.61111V17C18.7778 19.2091 16.9869 21 14.7778 21H5C2.79086 21 1 19.2091 1 17V16.2778M1 16.2778L4.83824 12.4395C6.40034 10.8774 8.93298 10.8774 10.4951 12.4395C11.8961 13.8406 13.5664 15.5108 14.8889 16.8333" stroke-width="2" stroke-linecap="round" id="path6" />
   <path d="M18.7778 14.6111L18.2729 14.1062C16.7108 12.5441 14.1781 12.5441 12.616 14.1062L12.3889 14.3333" stroke-width="2" stroke-linecap="round" id="path8" />
   <circle cx="12.1111" cy="7.66667" r="0.555556" id="circle10" />
</svg>
