<?xml version="1.0" encoding="UTF-8" standalone="no"?>
<svg
   width="17.903"
   height="13.667"
   viewBox="0 0 17.903 13.667"
   fill="none"
   version="1.1"
   id="svg6"
   sodipodi:docname="Runtime.svg"
   inkscape:version="1.2.2 (732a01da63, 2022-12-09)"
   xmlns:inkscape="http://www.inkscape.org/namespaces/inkscape"
   xmlns:sodipodi="http://sodipodi.sourceforge.net/DTD/sodipodi-0.dtd"
   xmlns="http://www.w3.org/2000/svg"
   xmlns:svg="http://www.w3.org/2000/svg">
  <defs
     id="defs10" />
  <sodipodi:namedview
     id="namedview8"
     pagecolor="#ffffff"
     bordercolor="#666666"
     borderopacity="1.0"
     inkscape:showpageshadow="2"
     inkscape:pageopacity="0.0"
     inkscape:pagecheckerboard="0"
     inkscape:deskcolor="#d1d1d1"
     showgrid="false"
     inkscape:zoom="24.424647"
     inkscape:cx="3.8895138"
     inkscape:cy="11.381946"
     inkscape:window-width="1680"
     inkscape:window-height="979"
     inkscape:window-x="1912"
     inkscape:window-y="-8"
     inkscape:window-maximized="1"
     inkscape:current-layer="svg6" />
  <g
     id="g3027"
     transform="translate(-0.22967506,-0.05486909)">
    <path
       d="m 10.948955,8.656189 c 0.4688,-0.4689 0.7322,-1.1048 0.7322,-1.7678 0,-0.66304 -0.2634,-1.29893 -0.7322,-1.76777 -0.4689,-0.46884 -1.1048,-0.73223 -1.7678,-0.73223 -0.66304,0 -1.29893,0.26339 -1.76777,0.73223 -0.46884,0.46884 -0.73223,1.10473 -0.73223,1.76777 0,0.663 0.26339,1.2989 0.73223,1.7678 0.46884,0.4688 1.10473,0.7322 1.76777,0.7322 0.663,0 1.2989,-0.2634 1.7678,-0.7322 z"
       stroke-width="2"
       stroke-linecap="round"
       stroke-linejoin="round"
       id="path2"
       style="stroke-opacity:1" />
    <path
       d="m 1.229495,6.888379 c 1.06167,-3.38083 4.22083,-5.83333 7.95166,-5.83333 3.7317,0 6.89,2.4525 7.9517,5.83333 -1.0617,3.38081 -4.22,5.83331 -7.9517,5.83331 -3.73083,0 -6.88999,-2.4525 -7.95166,-5.83331 z"
       stroke-width="2"
       stroke-linecap="round"
       stroke-linejoin="round"
       id="path4"
       style="stroke-opacity:1" />
  </g>
</svg>
